<?xml version="1.0" encoding="UTF-8"?>
<!-- Created with Inkscape (http://www.inkscape.org/) -->
<svg width="421.5mm" height="333.1mm" version="1.1" viewBox="0 0 421.5 333.1" xml:space="preserve" xmlns="http://www.w3.org/2000/svg"><g transform="translate(624.5,-47.3)"><path d="m-304.8 47.3c1.1 2.1 3 4 4.4 5.8l9 11.68c1.1 1.5 2.2 2.9 3.4 4.3 0.2 0.4 1 1.1 0.9 1.6-0.2 0.4-0.8 0.7-1.1 1l-2.7 2.2c-3.4 2.8-6.8 5.6-10.1 8.5-12.5 10.6-25.1 21.12-37.8 31.62-4.1 3.4-8.2 6.9-12.3 10.3l-3.1 2.6c-0.2 0.2-0.9 0.6-1 1 0 0.3 0.4 0.7 0.6 0.9 0.6 0.6 1.1 1.3 1.7 1.9 2.3 2.6 4.5 5.1 6.7 7.7 9 10.4 18.1 20.6 27.1 30.9 6 7 12.2 13.9 18.2 20.9 1.6 1.8 3.1 3.5 4.6 5.3 0.3 0.3 1.1 1.6 1.7 1.6 0.4 0.1 0.9-0.6 1.1-0.9 0.9-0.8 1.8-1.7 2.7-2.5 3.9-3.5 7.6-7.1 11.4-10.6 13.8-12.8 27.6-25.7 41.4-38.5 3.5-3.2 7-6.4 10.4-9.7 0.9-0.9 1.8-1.8 2.8-2.6 0.2-0.2 0.7-0.8 1-0.8 0.4 0 1.2 0.9 1.5 1.2 1.3 1.3 2.7 2.5 4 3.8 3.4 3.2 6.9 6.4 10.3 9.6 1.6 1.4 3.2 3.4 5 4.5v-103.3h-101.8m-319.7 26.78 3.1 4 5.6 7.1 17.5 22.32 57 72.7 21.5 27.3 5.6 7.1 1.6 1.9 0.8 0.9 2.5 0.1h95.1c-0.7-1.3-2-2.5-2.9-3.7-2.1-2.5-4.2-5.1-6.3-7.7-6.2-7.5-12.4-15.1-18.6-22.6-19.7-24.1-39.3-48.2-59-72.3-7.3-8.9-14.6-17.92-21.9-26.82-2-2.5-4-4.9-6-7.4-0.6-0.7-1.6-2.5-2.5-2.8-0.7-0.3-1.8-0.1-2.6-0.1h-90.5m146.4 33.82c0.7 1.4 2.1 2.7 3.2 3.9 2.1 2.6 4.2 5.1 6.3 7.7 6.7 8 13.3 16 19.9 24l35.4 42.6c3.2 3.9 6.5 7.7 9.7 11.7 2.7 3.2 5.4 6.6 8.5 9.4 10.8 9.8 24.8 15.8 39.4 16.2 10.6 0.3 20.9-2.2 30.3-7 3.1-1.6 6-3.6 9-5.4 4.6-2.9 16.7-10.7 21.4-13.5-0.1-0.1 1 0.6-1.6-2-1.4-1.6-2.7-3.2-4.1-4.8-4.3-4.8-8.5-9.6-12.7-14.4-13.2-15-26.2-30-39.4-44.9-4.9-5.7-9.8-11.2-14.7-16.9-1.4-1.5-2.8-3.1-4.2-4.7-0.4-0.5-1.1-1.6-1.7-1.9-0.8-0.3-2 0-2.8 0h-101.9m-55.6 151.3c-1.6 0.2-3.2 0.1-4.7 0.3-3.8 0.4-7.5 1.1-11.1 2.2-14.2 4.3-26.5 14.4-34.2 27-10.5 17.1-11.2 39.6-2.5 57.6 5.7 11.7 15.8 21.7 27.3 27.7 11 5.6 23.8 7.4 35.9 5.8 20.2-2.6 38.3-16.3 46.8-34.8 3.8-8.3 5.6-17.6 5.3-26.8-0.2-8.4-2-16.7-5.6-24.4-7.8-16.5-23.9-29.6-41.9-33.3-3.5-0.7-6.9-1.1-10.5-1.3-1.5-0.1-3.2-0.2-4.8 0m138.9 0c-1.8 0.2-3.7 0.2-5.5 0.4-3.7 0.4-7.3 1.1-10.9 2.2-14 4.4-26.3 14.6-33.9 27.1-9.5 15.8-10.9 36.3-4.2 53.4 5.4 13.6 16.6 25.6 29.7 32 11 5.3 23.3 7.1 35.3 5.5 19.8-2.6 37.6-15.9 46.3-33.8 4.2-8.7 6.2-18.7 5.8-28.4-0.4-8-2-15.9-5.4-23.2-7.6-16.5-23.4-29.7-41.2-33.7-3.7-0.9-7.5-1.3-11.4-1.5-1.5-0.1-3.1-0.2-4.6 0m74.1 3.3v32.3h44.9l-3.1 5.8-6.3 11.6-23.8 43.4-7.8 14.2-3.9 7.3h98.9v-32.3h-45.1l3.3-6 7.4-13.5 22.7-41.5 7.9-14.4 2.4-4.5 1.3-2.4h-98.8m-212.2 29.1c3.2-0.4 6.8 0.2 9.9 1.2 3 0.9 5.9 2.4 8.5 4.3 10.7 8 14.4 23.2 8.4 35.2-2.3 4.7-6.1 8.8-10.6 11.6-3.3 2.1-7.2 3.4-11.1 3.8-5.3 0.6-10.7 0-15.6-2.3-2.9-1.3-5.5-3.1-7.7-5.3-2.7-2.7-4.9-5.7-6.4-9.2-5.1-11.9-1.2-26.1 9.1-33.8 3-2.3 6.5-4 10.3-4.8 1.7-0.4 3.5-0.5 5.2-0.7m138.8 0c2.3-0.3 4.9 0.1 7.1 0.5 13.6 2.7 23.3 15.6 22.3 29.4-0.6 9.2-5.4 17.1-13 22.2-3.4 2.2-7.4 3.6-11.4 4-5 0.6-10.2 0.1-14.9-1.9-3-1.3-5.9-3.2-8.3-5.6-3-3-5.4-6.4-7-10.4-4.4-11.8-0.2-25.3 9.8-32.9 3-2.2 6.5-3.8 10.1-4.6 1.8-0.4 3.5-0.5 5.3-0.7z" fill="#0e6aac"/><path d="m-288.3 262.1c-0.3-0.9-0.8-3.3-1-5.3-1-6-1.7-12.8-2.1-21.8-0.2-3-0.2-14-0.1-17.2 0.2-5.3 0.6-10.6 1.1-13.7l0.1-0.4-0.7-0.7c-1.1-1.3-2.2-3.1-3-5.2l-0.3-0.8 0.3-0.4c1.8-1.7 12.7-11.8 12.8-11.7 0 0 0.2 0.5 0.4 1.2 0.3 1.1 1 2.8 1.4 3.9 0.2 0.3 0.2 0.5 0.2 0.5 0 0.1-0.3 0.2-0.7 0.3-1.9 0.6-3.2 1.9-3.7 3.7-0.2 0.5-0.4 2.6-0.3 2.6s0.2-0.1 0.3-0.4c0.6-1.4 2.2-2.8 4.2-3.7 0.5-0.3 1-0.5 1.1-0.5 0 0 0.1 0 0.1-0.1 0 0-0.1-0.1-0.1-0.2-0.1 0-0.1 0 0 0 0.2 0.1 0.2 0 0.7-1 1.8-3.1 3.7-5.3 5-5.9 0.6-0.3 1.5-0.3 1.5 0 0 0.2-4.8 10.9-5.5 12.3-0.8 1.5-1.5 2.8-2.1 3.5-0.5 0.7-1.5 1.6-2.1 2-0.4 0.2-0.6 0.4-0.6 0.5 0 0.2 0.7 4.6 1.2 8 2 12.1 3.9 22.5 5.8 30 1.3 5.3 2.4 8.5 3.6 11.5 0.7 1.5 1.4 3.2 1.8 4.7 0.4 1.1 1 3.4 1.1 4.2l0.1 0.3h-20.5zm-92.7-2.1c-3.5-0.6-7.6-1-11.7-1-1.2 0-2.1 0-2.1-0.1 0 0 0.4-1.7 0.8-3.8 1.6-7.8 3.1-16.8 4.5-26.2 0.2-1.6 0.4-2.9 0.4-3 0 0-0.3-0.1-0.4-0.1-1.6-0.9-2.9-2.4-4.5-5.5-0.4-0.9-1.8-4-3.2-7-2.7-6.2-2.6-5.7-1.7-5.7 1.2 0 2.7 1.3 4.5 4.1 0.5 0.6 1.1 1.6 1.3 2.1 0.3 0.6 0.6 1 0.7 1 0 0 0.2-0.3 0.3-0.7 0.4-0.6 0.6-1.2 1.4-3.1 0.1-0.1 0.1-0.1 0.9 0.5 1.5 1.1 3.3 2.3 5 3.3 1.9 1.1 5.3 2.9 7.3 3.7l1.3 0.5-0.4 0.8c-0.4 1.3-1.3 3.3-2 4.2-0.3 0.5-0.9 1.2-1.2 1.6l-0.7 0.7 0.1 1.2c0.5 3.3 0.5 6.1 0.7 11.3 0.2 5.1 0 15.3-0.2 20.4v1.1zm-5.3-41.9c-0.3-1.7-1.4-3-2.9-3.8-0.7-0.3-1.7-0.6-1.7-0.6s-0.8 1.7-0.9 1.8c0 0.1 0 0.1 0.1 0.1 0.2 0 2 0.9 2.6 1.4 1.3 0.8 2.3 1.9 2.7 2.9l0.3 0.4v-0.7c0-0.5-0.1-1.1-0.2-1.5zm-155.2 41.6c0.1-0.1 0.4-0.8 0.7-1.5 2.4-5.4 4.9-15.9 7.6-31.7 0.8-4 1.6-9.5 2.2-13.6 0.3-1.4 0.5-3.1 0.6-3.6 0.2-1.1 0.2-1.2 0-1.2-0.4-0.3-1.3-1-1.8-1.6-0.7-1.1-1.5-2.3-2.3-4.1-0.8-1.5-5.5-12.2-5.5-12.2 0.1-0.2 0.4-0.2 0.6-0.2 1.5 0 3.6 2.2 5.9 6.3l0.6 1 0.1-0.2c0.3-0.5 0.9-1.7 1.4-2.9l0.4-1c0-0.1 2.6 3.1 5.7 7.1l5.6 7.1-0.3 0.3c-0.2 0.3-0.6 0.6-0.8 0.9-0.6 0.3-0.6 0.4-0.6 0.7 1.5 10.5 1.7 26.2 0.5 40.5-0.3 3.4-0.9 9.2-1.1 9.7 0 0.1-0.1 0.1-1.1 0-3-0.4-4.4-0.4-8.3-0.4-3 0-4.2 0-5.4 0.1-1.7 0.2-4.2 0.5-4.5 0.6-0.2 0-0.2 0-0.2-0.1zm14.8-59.1c-0.3-1.7-1.4-3.1-2.9-3.8-0.5-0.2-1-0.5-1.3-0.5l-0.4-0.2-0.4 1c-0.3 0.5-0.6 0.9-0.6 0.9s0.1 0.1 0.3 0.1c0.4 0.1 1.9 0.9 2.6 1.4 1.2 0.9 2.1 1.9 2.6 2.9l0.2 0.4v-0.7c0-0.5-0.1-1.1-0.1-1.5z" fill="#bcbec0" stroke-width=".08465"/></g></svg>
