<!-- Generator: Adobe Illustrator 26.2.1, SVG Export Plug-In . SVG Version: 6.00 Build 0)  -->
<svg width="508" height="453" version="1.1" viewBox="0 0 508 453" xml:space="preserve" xmlns="http://www.w3.org/2000/svg">
<style type="text/css">
	.st0{fill:url(#SVGID_1_);}
	.st1{fill:url(#SVGID_00000100374781197637613910000002083358941014354595_);}
	.st2{fill:url(#SVGID_00000109027252061646662310000008807734010550581412_);}
	.st3{fill:url(#SVGID_00000093884674241930143670000001054504428235345824_);}
	.st4{fill:url(#SVGID_00000036958480020087735960000004993094012222943126_);}
	.st5{fill:url(#SVGID_00000083773745103293279260000006241290240976420528_);}
	.st6{fill:url(#SVGID_00000119092336941780014540000004397589042886834101_);}
	.st7{fill:url(#SVGID_00000145763057447125382490000012646993371002751934_);}
	.st8{fill:url(#SVGID_00000076601104300006852490000007917606803246754979_);}
	.st9{fill:url(#SVGID_00000091694253767464990840000006448033038085331098_);}
	.st10{fill:url(#SVGID_00000110440859505365912270000017623903093437554836_);}
	.st11{fill:url(#SVGID_00000015313503142658996240000006452927590506829216_);}
	.st12{fill:url(#SVGID_00000067917544410331803940000000403009900533719220_);}
	.st13{fill:url(#SVGID_00000085933631282944234310000001471135072451828876_);}
	.st14{fill:url(#SVGID_00000145055233366809155330000009588375516280863417_);}
	.st15{fill:url(#SVGID_00000086686976792494292100000008927406522999118764_);}
	.st16{fill:url(#SVGID_00000124883759717255677650000013950972961564497841_);}
	.st17{fill:url(#SVGID_00000183958990481528138390000008423367766122430614_);}
	.st18{fill:url(#SVGID_00000155145460955930429740000010004905699990157718_);}
	.st19{fill:url(#SVGID_00000031192723990531403980000015509606812832928131_);}
	.st20{fill:url(#SVGID_00000140734551557390466170000013488222256157030545_);}
	.st21{fill:url(#SVGID_00000040552556502428006780000003035271912964169398_);}
	.st22{fill:url(#SVGID_00000090983675047881482570000003136497731135588745_);}
	.st23{fill:url(#SVGID_00000012462060129716345400000002623163634646781339_);}
	.st24{fill:url(#SVGID_00000020359845871468413130000014591166829515659933_);}
	.st25{fill:url(#SVGID_00000039834946917080662570000007085399130661443226_);}
	.st26{fill:url(#SVGID_00000078737833390325177520000011871373402110879400_);}
	.st27{fill:url(#SVGID_00000040548560948285164910000018299334303988213642_);}
	.st28{fill:url(#SVGID_00000096763327686813115640000009989597163210202755_);}
	.st29{fill:url(#SVGID_00000152974726027012193850000012646890246035205296_);}
	.st30{fill:url(#SVGID_00000026852391550548462000000002997177088904793478_);}
	.st31{fill:url(#SVGID_00000134220735192776139480000012226929017440150706_);}
	.st32{fill:url(#SVGID_00000133496105699012933640000007869244667041710741_);}
	.st33{fill:url(#SVGID_00000088820541888640289870000009212729951788777868_);}
	.st34{fill:url(#SVGID_00000103223275131427750550000012694790793487697328_);}
	.st35{fill:#A61916;}
	.st36{fill:url(#SVGID_00000001629679496293938710000006151574869115517597_);}
</style>
<g transform="translate(-40.2 -85.3)">
		<linearGradient id="SVGID_1_" x1="78.4" x2="498" y1="484" y2="484" gradientUnits="userSpaceOnUse">
			<stop style="stop-color:#A61A17" offset="0"/>
			<stop style="stop-color:#9A1916" offset=".264"/>
			<stop style="stop-color:#791614" offset=".744"/>
			<stop style="stop-color:#651413" offset="1"/>
		</linearGradient>
		<path class="st0" d="m472 429c9 1.8 17.6 3.6 26.2 5.4 0 0.2 0.1 0.4 0.2 0.6-3.6 1.3-7.1 2.8-10.8 3.9-2.2 0.6-2.7 1.7-2.7 3.9 0.1 11 0 22 0.1 33 0.1 2.7-0.7 3.9-3.4 4.7-58.5 17.6-117 35.3-175 53-4.7 1.5-9.5 2.7-14.1 4.3-2.6 0.9-4.9 0.7-7.5 0-62.9-19.1-126-38.2-189-57.1-3.17-0.9-4.17-2.3-4.09-5.6 0.25-10.8 0-21.5 0.16-32.3 0-2.5-0.81-3.7-3.15-4.4-3.4-1-6.69-2.3-9.95-4.1 8.52-1.7 17-3.3 26-5v3.8c0 10.9 0.1 21.8-0.1 32.7 0 2.5 0.7 3.6 3.1 4.3 50.4 15.5 101 31 151 46.5 8.9 2.8 17.8 5.6 26.8 8.2 1.6 0.5 3.7 0.6 5.3 0.1 59.3-18.2 118-36.5 178-54.8 2.5-0.7 3.2-1.8 3.1-4.3-0.1-11 0-22 0-33v-3.8z" style="fill:url(#SVGID_1_)"/>
			<linearGradient id="SVGID_00000153697268341527961680000017036100814360253600_" x1="114" x2="462" y1="471" y2="471" gradientUnits="userSpaceOnUse">
			<stop style="stop-color:#A61A17" offset="0"/>
			<stop style="stop-color:#9A1916" offset=".264"/>
			<stop style="stop-color:#791614" offset=".744"/>
			<stop style="stop-color:#651413" offset="1"/>
		</linearGradient>
		<path d="m114 428c1.9-0.4 3.7-0.7 6.1-1.1v3.7c0 8.2 0 16.3-0.1 24.5 0 2.2 0.8 3 2.7 3.6 54.4 16.4 109 32.8 163 49.2 1.4 0.4 3.2 0.4 4.7-0.1 54.3-16.3 108-32.7 163-49.1 2.3-0.7 2.9-1.8 2.9-4.1-0.2-8.1-0.1-16.1-0.1-24.2v-3.9c2.2 0.4 3.9 0.7 6 1v17.5c0 4.8-0.1 9.6 0.1 14.3 0.1 2.5-0.8 3.4-3 4.1-43.8 13.6-87.6 27.3-131 41-12.4 3.8-24.7 7.8-37.1 11.5-1.7 0.5-3.9 0.6-5.6 0-56.1-17.4-112-35-168-52.5-2.4-0.7-3.3-1.6-3.3-4.2 0.2-10.3 0.1-20.6 0.1-31.2z" style="fill:url(#SVGID_00000153697268341527961680000017036100814360253600_)"/>
			<linearGradient id="SVGID_00000167370490672310968690000002969639485970276018_" x1="379" x2="419" y1="436" y2="436" gradientUnits="userSpaceOnUse">
			<stop style="stop-color:#A61A17" offset="0"/>
			<stop style="stop-color:#9A1916" offset=".264"/>
			<stop style="stop-color:#791614" offset=".744"/>
			<stop style="stop-color:#651413" offset="1"/>
		</linearGradient>
		<path d="m419 440h-40.1v-7.5h40.1v7.5z" style="fill:url(#SVGID_00000167370490672310968690000002969639485970276018_)"/>
			<linearGradient id="SVGID_00000158028515278478365470000000329960580428239028_" x1="158" x2="198" y1="436" y2="436" gradientUnits="userSpaceOnUse">
			<stop style="stop-color:#A61A17" offset="0"/>
			<stop style="stop-color:#9A1916" offset=".264"/>
			<stop style="stop-color:#791614" offset=".744"/>
			<stop style="stop-color:#651413" offset="1"/>
		</linearGradient>
		<path d="m158 440v-7.6h40.1v7.6h-40.1z" style="fill:url(#SVGID_00000158028515278478365470000000329960580428239028_)"/>
				<linearGradient id="SVGID_00000081610735124304322890000018259953815917742267_" x1="81.5" x2="499" y1="236" y2="236" gradientUnits="userSpaceOnUse">
				<stop style="stop-color:#A61A17" offset="0"/>
				<stop style="stop-color:#9A1916" offset=".264"/>
				<stop style="stop-color:#791614" offset=".744"/>
				<stop style="stop-color:#651413" offset="1"/>
			</linearGradient>
			<path d="m476 293c7.2-7.8 8.6-15 4.2-25.6-2.9 2.8-6.1 4.8-7.6 7.7-1.7 3.6-3.8 5.8-7.7 6-9.5 0.7-18.9 1.3-28.3 1.8-1 0-2.7-0.7-2.9-1.4-2.2-7.3-8.2-5.9-13.2-5.5-7.6 0.8-13.3-0.5-16-8.8-1.7-5.4-6.8-8.2-12.1-7.7-5.6 0.5-10.4 3.7-11.8 9.9-1.2 5.5-2.2 11-3.2 16.5h-0.6v-12.5c-6.6 0.4-12.7 1.1-18.9 1.2-5.9 0.1-11.9-0.3-17.9-0.4 9.2-2 16.7-2.8 21.9-3.2 5.1-0.4 9.5-0.4 14.3-3.3 2.6-1.6 5-4 7.1-7.3 7.7-11.9 25.8-15 37.1-6.5 4.3 3.3 6.9 8.9 10 13.1 0-4 0.4-8.6 0-13.1-0.5-4.7-1.6-9.4-4.9-12.7-1.9-1.9-4.9-3.7-15.1-4-10.6-0.4-23.2 1-37.7 1.6-2.5 0.2-6.5 0.3-9.3-2.3-2-1.9-2.8-4.9-2.9-9.5-0.2-7.4-0.1-14.7-0.1-22.1-0.1-11.4 0.6-11.8 11.8-8.2 10.8 3.4 18.3 11 24.7 20.5-1.6-13.9-17.2-28.5-30.9-29.4-10.8-0.7-11.1-0.4-10.9 10.4v3.5c0 16.9-0.2 33.7 0.1 50.6 0.1 4.7 1.5 9.4 2.2 13.8-4.8-0.2-6.3-1.7-6.4-10.7-0.2-25.1-0.2-50.3-0.2-75.5 0-1.8 1-3.5 1.5-5.3 1.5 8.3 2.7 9.4 10.4 9.4 12.8 0 23 5.1 30.1 15.6 2.8 4.1 6 5 10.4 4.6 6.7-0.5 13.5-0.6 20.2-1.1 5.9-0.4 11.8-1 18.3-1.5-5.4-8-12-13.1-19.9-15.9-5.7-1.9-11-3.8-14.9-8.7-1.5-1.8-4.3-2.7-6.7-3.5-18.7-7-37.9-5.1-57.2-3-6 0.7-6.6 3.3-6.5 8.4 0.2 23.2 0.1 46.4 0.1 69.6 0 7.8-2.6 10.1-10.6 10.8-12 1.1-23.8 3-35.7 4.2-11.3 1.1-22.7 1.9-34.8 2.9v-29.2h-7c-42.4 0.1-84.9 0.2-127 0.5-5.7 0.1-11.1 0.3-13.9-6-0.4-1-1.8-2.1-2.7-2.1-7.13-0.2-14.2-0.1-22.7-0.1 22.2 17.4 38.9 48.9 46.2 68.7-11 2-15.9 4-26.9 6.1h398c-7.7-3.8-15.4-7.5-23.1-11.3zm-160 1.5c-0.6 0.5-2 1.4-3.8 1.4-2.5-0.1-4.4-2-5.1-2.9-4.6-5.5-3.7-19.1 1.7-23.9 1.7-1.6 3.5-2.2 5.2-1.9 0.8 0.2 2 0.7 3.7 3 3.6 5.2 3.5 11.1 3.4 12 0 1.7-0.3 8.9-5.1 12.3zm79.2 0c-0.7 0.5-2 1.4-3.8 1.4-2.6-0.1-4.5-2-5.2-2.9-4.5-5.5-3.6-19.1 1.7-23.9 1.8-1.6 3.6-2.2 5.2-1.9 0.8 0.2 2.1 0.7 3.7 3 3.6 5.2 3.5 11.1 3.5 12-0.1 1.7-0.4 8.9-5.1 12.3zm-100 0c-0.7 0.5-2 1.4-3.8 1.4-2.6-0.1-4.4-2-5.1-2.9-4.6-5.5-3.7-19.1 1.7-23.9 1.7-1.6 3.5-2.2 5.1-1.9 0.9 0.2 2.1 0.7 3.7 3 3.7 5.2 3.5 11.1 3.5 12-0.1 1.7-0.3 8.9-5.1 12.3zm59.3-5.9c-2.3-0.2-4.7-0.5-7-0.9-5.6-0.8-7.5-3.3-7-9.3h32.6c0.3 3.8 0.6 7.3 0.9 11.9-6.4-0.6-13-1.1-19.5-1.7zm60.1-7.9c4.4 1.5 10.7-3.7 14 4.1-5.7 0.8-10.7 1.6-14-4.1zm16.2 11.2c-0.2-0.8-0.3-1.5-0.4-2.3 13.1-0.8 26.1-1.6 39.2-2.5 0 0.7 0.1 1.4 0.1 2-12.9 0.9-25.9 1.9-38.9 2.8z" style="fill:url(#SVGID_00000081610735124304322890000018259953815917742267_)"/>
			<linearGradient id="SVGID_00000049211980814106733330000015656792558155448500_" x1="227" x2="444" y1="137" y2="137" gradientUnits="userSpaceOnUse">
			<stop style="stop-color:#A61A17" offset="0"/>
			<stop style="stop-color:#9A1916" offset=".264"/>
			<stop style="stop-color:#791614" offset=".744"/>
			<stop style="stop-color:#651413" offset="1"/>
		</linearGradient>
		<path d="m444 99c-61.3 30.5-121 60.3-182 90.3-0.4-1.3-0.9-2-0.8-2.6 2-9.2-2.9-13.9-10.5-17.7-8.4-4.2-16.3-9.4-24.4-14.1 0.1-0.8 0.2-1.5 0.3-2.2 4.2 0.2 8.6-0.4 12.5 0.7 9.6 2.7 19 6.3 28.6 9.4 1.7 0.5 4.2 0.9 5.6 0.1 15.3-8 30.5-16.4 46.6-25.2-21.9-16.2-43-31.9-64.3-47.8 7.3-5.19 13.6-6.08 21.7-2.39 23.3 10.6 47.1 20.2 70.6 30.3 3.5 1.5 6.3 1.7 9.9-0.2 10.7-5.8 21.6-11.2 32.6-16.5 16.9-8.09 34.2-8.34 53.2-2.09z" style="fill:url(#SVGID_00000049211980814106733330000015656792558155448500_)"/>
			<linearGradient id="SVGID_00000039833407589198212780000007120960390860148115_" x1="261" x2="329" y1="220" y2="220" gradientUnits="userSpaceOnUse">
			<stop style="stop-color:#259FDA" offset="0"/>
			<stop style="stop-color:#2498CE" offset=".271"/>
			<stop style="stop-color:#2184AD" offset=".763"/>
			<stop style="stop-color:#1F799B" offset="1"/>
		</linearGradient>
		<path d="m261 261c0-18.7 0-36 0.2-53.4 0-1.6 1.8-3.9 3.3-4.5 21.1-8 42.3-15.8 64.1-23.8 0.2 1.9 0.5 3.4 0.5 4.8 0.1 20 0 40 0.1 60 0.1 5.8-2 8.9-7.9 9.6-19.4 2.2-38.7 4.7-60.3 7.3z" style="fill:url(#SVGID_00000039833407589198212780000007120960390860148115_)"/>
			<linearGradient id="SVGID_00000072990938895507731890000003760946029977350279_" x1="417" x2="470" y1="256" y2="256" gradientUnits="userSpaceOnUse">
			<stop style="stop-color:#259FDA" offset="0"/>
			<stop style="stop-color:#2498CE" offset=".271"/>
			<stop style="stop-color:#2184AD" offset=".763"/>
			<stop style="stop-color:#1F799B" offset="1"/>
		</linearGradient>
		<path d="m417 234c4-0.4 8.8-0.9 14.2-1.4 22.9-2 28.2-0.4 33.8 2.3 2.3 1.2 5 4.2 5.1 6.4 0.2 10.6-0.3 21.3-0.8 32 0 1.7-1.3 3.3-3.4 4.7v-23c-1.2 5.8-2 9.8-2.6 12.7-0.6 3.4-1.2 6.3-3.5 9.3-1 1.3-2.2 2.6-2.9 3.1-0.9-9.2-1.5-18.7-2.4-27.9-0.1 0-0.3-0.1-0.4-0.1-0.7 9.5-0.9 17.2-1.7 28-10.5-6.9-6.4-17.2-12-25.9 0.8 9.3 1.5 17.8 2.2 26.4-5.3-1.3-8.5-6.4-8.9-14.1-0.3-5.7-0.8-11.4-1.3-17.1-0.2-3-0.8-4.4-1.7-6.1-3.2-6.3-10.4-8.5-13.7-9.3z" style="fill:url(#SVGID_00000072990938895507731890000003760946029977350279_)"/>
			<linearGradient id="SVGID_00000091713584447235984460000011053083211499034254_" x1="396" x2="456" y1="218" y2="218" gradientUnits="userSpaceOnUse">
			<stop style="stop-color:#259FDA" offset="0"/>
			<stop style="stop-color:#2498CE" offset=".271"/>
			<stop style="stop-color:#2184AD" offset=".763"/>
			<stop style="stop-color:#1F799B" offset="1"/>
		</linearGradient>
		<path d="m396 207c6.7-0.4 12.6-0.7 18.4-1 7.1-0.4 14.3-0.6 21.3-1.2 9.8-0.9 14.4 1.6 17.6 10.9 1.2 3.3 1.8 6.8 2.6 10.4 0.4 1.5-0.7 2.9-2.2 3-9.4 0.5-18.1 1-26.9 1.7-5.2 0.4-10.5 1-15.7 2-1.9 0.4-4.2 0.7-6.1-0.6-2.5-1.5-3-4.8-3.3-6.5-0.7-4.3-2.3-10.4-5.7-18.7z" style="fill:url(#SVGID_00000091713584447235984460000011053083211499034254_)"/>
			<linearGradient id="SVGID_00000129886785181038636400000014627904700946059664_" x1="137" x2="177" y1="174" y2="174" gradientUnits="userSpaceOnUse">
			<stop style="stop-color:#A61A17" offset="0"/>
			<stop style="stop-color:#9A1916" offset=".264"/>
			<stop style="stop-color:#791614" offset=".744"/>
			<stop style="stop-color:#651413" offset="1"/>
		</linearGradient>
		<path d="m137 185v-20.2h39.8v20.2h-39.8z" style="fill:url(#SVGID_00000129886785181038636400000014627904700946059664_)"/>
			<linearGradient id="SVGID_00000156570412648447344640000015178953723798219397_" x1="184" x2="223" y1="174" y2="174" gradientUnits="userSpaceOnUse">
			<stop style="stop-color:#A61A17" offset="0"/>
			<stop style="stop-color:#9A1916" offset=".264"/>
			<stop style="stop-color:#791614" offset=".744"/>
			<stop style="stop-color:#651413" offset="1"/>
		</linearGradient>
		<path d="m184 185v-20.2h39.7v20.2h-39.7z" style="fill:url(#SVGID_00000156570412648447344640000015178953723798219397_)"/>
			<linearGradient id="SVGID_00000027574351154042298910000012164817537834886053_" x1="364" x2="399" y1="217" y2="217" gradientUnits="userSpaceOnUse">
			<stop style="stop-color:#259FDA" offset="0"/>
			<stop style="stop-color:#2498CE" offset=".271"/>
			<stop style="stop-color:#2184AD" offset=".763"/>
			<stop style="stop-color:#1F799B" offset="1"/>
		</linearGradient>
		<path d="m368 200c15.2 6 26.7 15.1 31.1 32.6-10.6 0.4-20.5 0.9-30.5 1.1-3.9 0.1-4.7-2.7-4.6-6.1v-24.8c0-2.1 2.1-3.5 4-2.8z" style="fill:url(#SVGID_00000027574351154042298910000012164817537834886053_)"/>
			<linearGradient id="SVGID_00000147215602224262716830000012103657288137302715_" x1="204" x2="243" y1="223" y2="223" gradientUnits="userSpaceOnUse">
			<stop style="stop-color:#A61A17" offset="0"/>
			<stop style="stop-color:#9A1916" offset=".264"/>
			<stop style="stop-color:#791614" offset=".744"/>
			<stop style="stop-color:#651413" offset="1"/>
		</linearGradient>
		<path d="m204 213h39.1v20.6h-39.1v-20.6z" style="fill:url(#SVGID_00000147215602224262716830000012103657288137302715_)"/>
			<linearGradient id="SVGID_00000131340534428520751170000001628223167220128402_" x1="116" x2="155" y1="198" y2="198" gradientUnits="userSpaceOnUse">
			<stop style="stop-color:#259FDA" offset="0"/>
			<stop style="stop-color:#2498CE" offset=".271"/>
			<stop style="stop-color:#2184AD" offset=".763"/>
			<stop style="stop-color:#1F799B" offset="1"/>
		</linearGradient>
		<path d="m155 209h-38.9v-21h38.9v21z" style="fill:url(#SVGID_00000131340534428520751170000001628223167220128402_)"/>
			<linearGradient id="SVGID_00000011728713999051837760000008664085441428570548_" x1="161" x2="200" y1="223" y2="223" gradientUnits="userSpaceOnUse">
			<stop style="stop-color:#259FDA" offset="0"/>
			<stop style="stop-color:#2498CE" offset=".271"/>
			<stop style="stop-color:#2184AD" offset=".763"/>
			<stop style="stop-color:#1F799B" offset="1"/>
		</linearGradient>
		<path d="m200 213v20.7h-39.2v-20.7h39.2z" style="fill:url(#SVGID_00000011728713999051837760000008664085441428570548_)"/>
			<linearGradient id="SVGID_00000183250728166553455250000005316522896516572598_" x1="161" x2="200" y1="198" y2="198" gradientUnits="userSpaceOnUse">
			<stop style="stop-color:#A61A17" offset="0"/>
			<stop style="stop-color:#9A1916" offset=".264"/>
			<stop style="stop-color:#791614" offset=".744"/>
			<stop style="stop-color:#651413" offset="1"/>
		</linearGradient>
		<path d="m200 188v20.9h-39.1v-20.9h39.1zm-3.4 16.7c0.4 0.1 0.8 0.1 1.2 0.1v-14.5h-32.7v1.2h31.6c-0.1 4.9-0.1 8.9-0.1 13.2z" style="fill:url(#SVGID_00000183250728166553455250000005316522896516572598_)"/>
			<linearGradient id="SVGID_00000005952152977990614100000013934934980979115188_" x1="204" x2="243" y1="198" y2="198" gradientUnits="userSpaceOnUse">
			<stop style="stop-color:#259FDA" offset="0"/>
			<stop style="stop-color:#2498CE" offset=".271"/>
			<stop style="stop-color:#2184AD" offset=".763"/>
			<stop style="stop-color:#1F799B" offset="1"/>
		</linearGradient>
		<path d="m204 209v-20.8h39.1v20.8h-39.1zm35.8-4.2c0.3 0.1 0.7 0.1 1.1 0.1v-14.5h-32.7v1.2h31.6v13.2z" style="fill:url(#SVGID_00000005952152977990614100000013934934980979115188_)"/>
			<linearGradient id="SVGID_00000150824005394626571680000000393481150143371964_" x1="116" x2="155" y1="223" y2="223" gradientUnits="userSpaceOnUse">
			<stop style="stop-color:#A61A17" offset="0"/>
			<stop style="stop-color:#9A1916" offset=".264"/>
			<stop style="stop-color:#791614" offset=".744"/>
			<stop style="stop-color:#651413" offset="1"/>
		</linearGradient>
		<path d="m116 234v-20.7h38.9v20.7h-38.9zm35.7-4.2c0.4 0.1 0.8 0.1 1.2 0.1v-14.6h-32.7v1.3h31.5v13.2z" style="fill:url(#SVGID_00000150824005394626571680000000393481150143371964_)"/>
			<linearGradient id="SVGID_00000065047072596476180450000014779994835799241095_" x1="400" x2="426" y1="265" y2="265" gradientUnits="userSpaceOnUse">
			<stop style="stop-color:#A61A17" offset="0"/>
			<stop style="stop-color:#9A1916" offset=".264"/>
			<stop style="stop-color:#791614" offset=".744"/>
			<stop style="stop-color:#651413" offset="1"/>
		</linearGradient>
		<path d="m400 256c7.3-0.1 14.2-1.3 18.6 5.8-1.8 1-3.4 1.9-5.1 2.9 2.4 5.8 11.7 0.6 12.5 8.6-1.5 0.1-2.9 0.1-4.2 0.3-6.6 1.3-11.3 0-13.8-7.3-1.3-3.6-4.9-6.4-8-10.3z" style="fill:url(#SVGID_00000065047072596476180450000014779994835799241095_)"/>
			<linearGradient id="SVGID_00000096754388172206572300000009954571597017093017_" x1="473" x2="480" y1="259" y2="259" gradientUnits="userSpaceOnUse">
			<stop style="stop-color:#A61A17" offset="0"/>
			<stop style="stop-color:#9A1916" offset=".264"/>
			<stop style="stop-color:#791614" offset=".744"/>
			<stop style="stop-color:#651413" offset="1"/>
		</linearGradient>
		<path d="m473 249c4.2 1.7 6.9 5.8 6.9 10.3-0.1 4.4-2.8 8.4-6.9 10v-20.3z" style="fill:url(#SVGID_00000096754388172206572300000009954571597017093017_)"/>
			<linearGradient id="SVGID_00000032621420592077485110000006421130971233049001_" x1="312" x2="319" y1="282" y2="282" gradientUnits="userSpaceOnUse">
			<stop style="stop-color:#259FDA" offset="0"/>
			<stop style="stop-color:#2498CE" offset=".271"/>
			<stop style="stop-color:#2184AD" offset=".763"/>
			<stop style="stop-color:#1F799B" offset="1"/>
		</linearGradient>
		<path d="m313 269c0.8 0.6 5.6 4.4 6.1 11 0.7 8.4-6.2 13.4-6.5 13.7 1.1-2 3.2-6.2 3.4-11.8 0.2-6.2-1.9-10.8-3-12.9z" style="fill:url(#SVGID_00000032621420592077485110000006421130971233049001_)"/>
			<linearGradient id="SVGID_00000079483828932975903490000005901451618612583351_" x1="392" x2="398" y1="282" y2="282" gradientUnits="userSpaceOnUse">
			<stop style="stop-color:#259FDA" offset="0"/>
			<stop style="stop-color:#2498CE" offset=".271"/>
			<stop style="stop-color:#2184AD" offset=".763"/>
			<stop style="stop-color:#1F799B" offset="1"/>
		</linearGradient>
		<path d="m392 269c0.7 0.6 5.5 4.4 6 11 0.7 8.4-6.1 13.4-6.5 13.7 1.2-2 3.2-6.2 3.4-11.8 0.2-6.2-1.8-10.8-2.9-12.9z" style="fill:url(#SVGID_00000079483828932975903490000005901451618612583351_)"/>
			<linearGradient id="SVGID_00000152236296871943125820000009339735393459304882_" x1="291" x2="298" y1="282" y2="282" gradientUnits="userSpaceOnUse">
			<stop style="stop-color:#259FDA" offset="0"/>
			<stop style="stop-color:#2498CE" offset=".271"/>
			<stop style="stop-color:#2184AD" offset=".763"/>
			<stop style="stop-color:#1F799B" offset="1"/>
		</linearGradient>
		<path d="m292 269c0.7 0.6 5.6 4.4 6.1 11 0.6 8.4-6.2 13.4-6.6 13.7 1.2-2 3.2-6.2 3.4-11.8 0.3-6.2-1.8-10.8-2.9-12.9z" style="fill:url(#SVGID_00000152236296871943125820000009339735393459304882_)"/>
			<linearGradient id="SVGID_00000175281805500367298170000005191833651903903647_" x1="211" x2="260" y1="439" y2="439" gradientUnits="userSpaceOnUse">
			<stop style="stop-color:#259FDA" offset="0"/>
			<stop style="stop-color:#2498CE" offset=".271"/>
			<stop style="stop-color:#2184AD" offset=".763"/>
			<stop style="stop-color:#1F799B" offset="1"/>
		</linearGradient>
		<path d="m260 424-10.1 30.7h-10l-4.4-15.8-4.6 15.8h-9.9l-9.7-30.7h10.7l4.6 19.5 4.8-19.5h8.6l4.4 19.4 4.9-19.4z" style="fill:url(#SVGID_00000175281805500367298170000005191833651903903647_)"/>
			<linearGradient id="SVGID_00000131336993398459195090000012361322498034546053_" x1="262" x2="271" y1="439" y2="439" gradientUnits="userSpaceOnUse">
			<stop style="stop-color:#259FDA" offset="0"/>
			<stop style="stop-color:#2498CE" offset=".271"/>
			<stop style="stop-color:#2184AD" offset=".763"/>
			<stop style="stop-color:#1F799B" offset="1"/>
		</linearGradient>
		<path d="m271 454h-8.9v-30.7h8.9z" style="fill:url(#SVGID_00000131336993398459195090000012361322498034546053_)"/>
			<linearGradient id="SVGID_00000084492298056146236510000000336609643168786049_" x1="276" x2="305" y1="439" y2="439" gradientUnits="userSpaceOnUse">
			<stop style="stop-color:#259FDA" offset="0"/>
			<stop style="stop-color:#2498CE" offset=".271"/>
			<stop style="stop-color:#2184AD" offset=".763"/>
			<stop style="stop-color:#1F799B" offset="1"/>
		</linearGradient>
		<path d="m305 424v30.7h-13.2l-6.8-19.6v19.6h-8.9v-30.7h14.1l5.9 19.1v-19.1z" style="fill:url(#SVGID_00000084492298056146236510000000336609643168786049_)"/>
			<linearGradient id="SVGID_00000167394175141434644950000012222770753749352361_" x1="310" x2="338" y1="439" y2="439" gradientUnits="userSpaceOnUse">
			<stop style="stop-color:#259FDA" offset="0"/>
			<stop style="stop-color:#2498CE" offset=".271"/>
			<stop style="stop-color:#2184AD" offset=".763"/>
			<stop style="stop-color:#1F799B" offset="1"/>
		</linearGradient>
		<path d="m338 437v16.8h-5.8l-0.5-1.5c-1.6 1.4-3.9 2.1-6.8 2.1-5 0-8.9-1.5-11.6-4.7-2.5-2.8-3.7-6.6-3.7-11.3 0-4.4 1.5-8.2 4.5-11.3s6.7-4.7 11.3-4.7c5.8 0 9.8 2.4 12.1 7.3l-7.1 4c-1.3-2-2.9-3.1-4.8-3.1-4 0-6 2.6-6 7.8s2 7.8 6 7.8c2.6 0 4.1-0.7 4.4-2h-4.1v-7.2z" style="fill:url(#SVGID_00000167394175141434644950000012222770753749352361_)"/>
			<linearGradient id="SVGID_00000147220691472764103250000014600172002935985547_" x1="341" x2="364" y1="439" y2="439" gradientUnits="userSpaceOnUse">
			<stop style="stop-color:#259FDA" offset="0"/>
			<stop style="stop-color:#2498CE" offset=".271"/>
			<stop style="stop-color:#2184AD" offset=".763"/>
			<stop style="stop-color:#1F799B" offset="1"/>
		</linearGradient>
		<path d="m360 432c-3.2-1.3-5.7-1.9-7.5-1.9-2.3 0-3.4 0.5-3.4 1.5 0 0.4 0.4 0.8 1.2 1.2 0.2 0.1 1.4 0.6 3.6 1.4 3.4 1.3 5.8 2.7 7.3 4.1 1.6 1.7 2.4 3.8 2.4 6.5 0 6.3-4 9.5-12 9.5-3.5 0-7.2-0.8-10.9-2.4l1.4-8.1c4.4 1.6 7.7 2.5 9.9 2.5 1.8 0 2.6-0.5 2.6-1.4s-1.1-1.8-3.3-2.7c-3.8-1.7-6.4-3.1-7.7-4.2-1.8-1.6-2.8-3.8-2.8-6.4 0-3.3 1.3-5.8 3.9-7.4 1.9-1.2 4.3-1.8 7.2-1.8s5.9 0.6 9.2 1.8z" style="fill:url(#SVGID_00000147220691472764103250000014600172002935985547_)"/>
</g>
<g transform="translate(-40.2 -85.3)">
			<linearGradient id="SVGID_00000138574896061090112770000010566222823661650612_" x1="170" x2="170" y1="409" y2="319" gradientUnits="userSpaceOnUse">
			<stop style="stop-color:#259FDA" offset="0"/>
			<stop style="stop-color:#2498CE" offset=".271"/>
			<stop style="stop-color:#2184AD" offset=".763"/>
			<stop style="stop-color:#1F799B" offset="1"/>
		</linearGradient>
		<path d="m167 389c8.1-0.4 16.2-0.8 24.3-1.1 0.1 0 0.2 0.1 0.2 0.2v16.9c0 0.2-0.1 0.3-0.2 0.3-14.1 1.2-28.3 2.5-42.4 4-0.1 0.1-0.3-0.1-0.3-0.2v-89.7c0-0.1 0.2-0.2 0.3-0.2h17.6c0.1 0 0.2 0.1 0.2 0.2v69.3c0.1 0.2 0.2 0.3 0.3 0.3z" style="fill:url(#SVGID_00000138574896061090112770000010566222823661650612_)"/>
			<linearGradient id="SVGID_00000178912203997472887400000012311844584875022492_" x1="289" x2="340" y1="360" y2="360" gradientUnits="userSpaceOnUse">
			<stop style="stop-color:#259FDA" offset="0"/>
			<stop style="stop-color:#2498CE" offset=".271"/>
			<stop style="stop-color:#2184AD" offset=".763"/>
			<stop style="stop-color:#1F799B" offset="1"/>
		</linearGradient>
		<path d="m340 319v83c0 0.2-0.1 0.3-0.2 0.3-7-0.3-10.7-0.5-17.7-0.7-0.2 0-0.3-0.1-0.3-0.3v-26c0-0.2-0.1-0.3-0.2-0.3h-14.8c-0.1 0-0.2 0.1-0.2 0.2v25.8c0 0.1-0.2 0.2-0.3 0.2-7-0.1-10.6-0.2-17.7-0.2-0.1 0-0.2-0.1-0.2-0.2v-81.8c0-0.1 0.1-0.2 0.2-0.2 7.1-0.1 10.7 0.1 17.7 0 0.1 0 0.3 0.1 0.3 0.2v40c0 0.1 0.1 0.3 0.2 0.3 5.9-0.1 8.9-0.1 14.8-0.2 0.1 0 0.2-0.1 0.2-0.2v-39.9c0-0.1 0.1-0.2 0.3-0.2h17.7c0.1 0 0.2 0.1 0.2 0.2z" style="fill:url(#SVGID_00000178912203997472887400000012311844584875022492_)"/>
			<linearGradient id="SVGID_00000059309125411093049860000005432728014805946001_" x1="348" x2="411" y1="363" y2="363" gradientUnits="userSpaceOnUse">
			<stop style="stop-color:#259FDA" offset="0"/>
			<stop style="stop-color:#2498CE" offset=".271"/>
			<stop style="stop-color:#2184AD" offset=".763"/>
			<stop style="stop-color:#1F799B" offset="1"/>
		</linearGradient>
		<path d="m386 389c-5.1-0.2-7.8-0.3-12.9-0.5-0.1 0-0.2 0.1-0.2 0.2-1.2 5.8-1.9 8.9-3.1 14.6 0 0.2-0.1 0.3-0.2 0.2-8.5-0.5-12.8-0.8-21.3-1.2-0.1 0-0.3-0.2-0.2-0.3 7.1-22.8 17.2-60.4 23.9-83.3 0-0.1 0.1-0.2 0.3-0.2h14.2c0.1 0 0.2 0.1 0.3 0.2 7.4 24.8 17.5 62.9 24.4 87.9 0 0.2-0.1 0.4-0.3 0.3-8.4-0.8-12.8-1.2-21.2-1.9-0.1 0-0.2-0.1-0.3-0.2-1.2-6.2-1.9-9.4-3.2-15.6 0-0.1-0.1-0.2-0.2-0.2zm-6.9-31.7c-1 5.3-1.6 8.4-2.7 13.9 0 0.1 0.1 0.3 0.2 0.3h5.6c0.2 0 0.4-0.1 0.3-0.3-1.1-5.6-1.8-8.6-2.9-13.9 0-0.2-0.4-0.2-0.5 0z" style="fill:url(#SVGID_00000059309125411093049860000005432728014805946001_)"/>
			<linearGradient id="SVGID_00000150068280581088055500000005290942276282816688_" x1="204" x2="204" y1="373" y2="355" gradientUnits="userSpaceOnUse">
			<stop style="stop-color:#259FDA" offset="0"/>
			<stop style="stop-color:#2498CE" offset=".271"/>
			<stop style="stop-color:#2184AD" offset=".763"/>
			<stop style="stop-color:#1F799B" offset="1"/>
		</linearGradient>
			<rect x="190" y="355" width="29" height="17.9" style="fill:url(#SVGID_00000150068280581088055500000005290942276282816688_)"/>
				<linearGradient id="SVGID_00000106853091370289308140000006248020971898451902_" x1="231" x2="281" y1="360" y2="360" gradientUnits="userSpaceOnUse">
				<stop style="stop-color:#259FDA" offset="0"/>
				<stop style="stop-color:#2498CE" offset=".271"/>
				<stop style="stop-color:#2184AD" offset=".763"/>
				<stop style="stop-color:#1F799B" offset="1"/>
			</linearGradient>
			<path d="m273 344c-6.9-3.3-12.4-4.9-16.4-4.9-5 0-7.5 1.3-7.5 3.8 0 1.1 0.9 2.2 2.6 3.2 0.5 0.3 3.2 1.5 7.9 3.7 7.5 3.3 12.9 6.8 16.1 10.6 3.6 4.3 5.4 9.9 5.4 16.8 0 16.5-8.8 24.7-26.5 24.7-7.8 0-15.7-2.1-23.9-6.2l3.1-20.9c9.6 4.1 16.8 6.2 21.6 6.2 4 0 5.9-1.2 5.9-3.6 0-2.2-2.4-4.5-7.3-6.9-8.4-4.3-14-8-16.9-10.9-4.1-4.3-6.1-9.8-6.1-16.7 0-8.7 2.8-15.1 8.4-19.2 4.2-3.1 9.5-4.6 15.9-4.6 6.3 0 13 1.5 20.2 4.7z" style="fill:url(#SVGID_00000106853091370289308140000006248020971898451902_)"/>
</g>
<linearGradient id="SVGID_00000044178202904179494890000002986840155860660912_" x1="417" x2="548" y1="357" y2="357" gradientTransform="translate(-40.2 -85.3)" gradientUnits="userSpaceOnUse">
	<stop style="stop-color:#259FDA" offset="0"/>
	<stop style="stop-color:#2498CE" offset=".271"/>
	<stop style="stop-color:#2184AD" offset=".763"/>
	<stop style="stop-color:#1F799B" offset="1"/>
</linearGradient>
<path d="m503 241c3-2.6 4.4-5.9 4.8-9.8 0.3-2.7 0.3-5.4-0.1-8.1-0.4-4-1.2-8.1-2.8-12.2-0.1-0.2-0.3-0.3-0.5-0.1-15.9 17.1-31.7 34.2-47.6 51.3v-28.6c0-0.1-0.1-0.2-0.2-0.2h-28.1c-0.1 0-0.2 0.1-0.2 0.2-3.7 18.7-7.4 41.9-11.3 60.7 0 0.3-0.4 0.3-0.5 0-3.4-18-8-43.1-11.6-60.7 0-0.1-0.1-0.2-0.2-0.2h-27.6c-0.1 0-0.2 0.1-0.2 0.2v88.4c0 0.1 0.1 0.2 0.2 0.3 7 0.7 10.6 1.1 17.6 1.9 0.1 0 0.3-0.1 0.3-0.3v-46.1c0-0.3 0.4-0.4 0.5-0.1 3.9 15.9 7.7 31.9 11.5 47.8 0 0.1 0.1 0.2 0.2 0.2 7.5 1 11.4 1.5 18.9 2.6 0.1 0 0.2-0.1 0.3-0.2 4.1-17.4 8.1-34.7 11.9-52.1 0.1-0.3 0.5-0.3 0.5 0v53.9c0 0.2 0.1 0.3 0.3 0.3 6.9 1.1 10.5 1.6 17.4 2.8 0.2 0 0.3-0.1 0.3-0.3v-16.8c10.2-3.7 20.3-7.4 30.4-11.1 7.8-2.9 12.3-9 14.2-17.7 0.4-2 0.6-4.1 0.7-6.2 0-2.6 0-2.6-2.4-1.4-14.3 7.3-28.5 14.6-42.8 21.9v-1.7c12.8-7.5 25.6-15.1 38.1-23.1 2.1-1.3 4.2-2.7 5.7-4.7 5.8-7.8 6.1-16.8 5.7-26.6 0-0.2-0.2-0.3-0.4-0.2-16.6 13.4-32.9 26.6-49.1 39.7v-2.4c15.2-13.9 30.4-27.8 46.1-41.3z" style="fill:url(#SVGID_00000044178202904179494890000002986840155860660912_)"/>
<linearGradient id="SVGID_00000124878552180836586530000002013098301085835423_" x1="90.3" x2="90.3" y1="418" y2="296" gradientTransform="translate(-40.2 -85.3)" gradientUnits="userSpaceOnUse">
	<stop style="stop-color:#259FDA" offset="0"/>
	<stop style="stop-color:#2498CE" offset=".271"/>
	<stop style="stop-color:#2184AD" offset=".763"/>
	<stop style="stop-color:#1F799B" offset="1"/>
</linearGradient>
<path d="m100 324c-7.47-27.8-15.4-62.2-22.1-90.2-0.1-0.2-0.2-0.2-0.3-0.2h-18.5c-0.12 0-0.23 0-0.26 0.2-2.21 9.7-4.48 19.7-6.76 29.9-16.3-17.5-32.5-35.1-48.8-52.6-0.13-0.2-0.37-0.2-0.44 0-1.6 4.2-2.37 8.2-2.86 12.3-0.32 2.7-0.33 5.4-0.1 8.1 0.4 3.8 1.78 7.2 4.81 9.8 14.8 12.7 29.3 25.9 43.7 39-0.17 0.8-0.33 1.5-0.5 2.3-15.3-12.4-30.6-24.7-46.2-37.3-0.17-0.1-0.42 0-0.43 0.2-0.38 9.7 0 18.7 5.77 26.6 1.49 2 3.55 3.4 5.64 4.7 10.6 6.7 21.4 13.2 32.2 19.6-0.14 0.6-0.28 1.3-0.41 1.9-12.2-6.2-24.4-12.4-36.5-18.7-2.34-1.2-2.38-1.2-2.33 1.5 0 2 0.23 4.1 0.67 6.2 1.89 8.7 6.43 14.7 14.2 17.6 6.97 2.6 14 5.2 20.9 7.7-1.44 6.9-2.83 13.6-4.16 20.2 0 0.2 0.13 0.4 0.31 0.3 8.32-1.3 12.6-2 21-3.3 0.11 0 0.21-0.1 0.23-0.2 1.24-8 1.84-12.1 3.04-19.9 0-0.2 0.1-0.3 0.2-0.3 5.1-0.4 7.7-0.6 12.8-1 0.1 0 0.2 0.1 0.2 0.2 1.3 7.3 2 11 3.2 18.2 0.1 0.1 0.2 0.2 0.3 0.2 8.4-1.2 12.8-1.7 21.2-2.7 0.1 0 0.2-0.1 0.2-0.3zm-28.8-36.8c-2.2 0.1-3.4 0.1-5.6 0.1-0.2 0-0.3-0.1-0.3-0.3 1.1-7.1 1.7-10.9 2.8-17.5 0-0.3 0.4-0.3 0.5 0 1.1 6.7 1.7 10.5 2.9 17.4 0 0.2-0.1 0.3-0.3 0.3z" style="fill:url(#SVGID_00000124878552180836586530000002013098301085835423_)"/>
<g transform="translate(-40.2 -85.3)">
	<path class="st35" d="m259 480c-0.4 0.9-0.9 1.7-1.8 2.5-1.4 1.3-3.3 2-5.6 2-2.9 0-5.3-1-7.1-2.9-1.9-1.9-2.8-4.2-2.8-7s0.9-5.1 2.7-7c1.9-2 4.3-3 7.2-3 2.2 0 4.1 0.7 5.6 2 0.8 0.7 1.4 1.6 1.8 2.5l-4.4 2.6c-0.8-1.3-1.8-1.9-3-1.9-2.5 0-3.7 1.6-3.7 4.8s1.2 4.8 3.7 4.8c1.2 0 2.2-0.6 3-1.9z" style="fill:#a61916"/>
	<path class="st35" d="m271 480h-4.1l-0.9 4.1h-6.6l6.3-19.1h6.4l6.5 19.1h-6.6zm-2.1-8.8-0.9 4.2h1.9z" style="fill:#a61916"/>
	<path class="st35" d="m296 484h-6.1c-1-2.3-1.7-3.8-2.1-4.3-0.6-1-1.3-1.6-2-1.7v6h-5.6v-19.1h7.3c2.6 0 4.6 0.5 5.9 1.5s2 2.6 2 4.8c0 2.9-1.1 4.8-3.2 5.7 0.7 0.5 1.9 2.9 3.8 7.1zm-7-14.7c-0.4-0.2-1-0.3-1.9-0.3h-1.3v4.4h1.6c0.8 0 1.4-0.1 1.8-0.3 0.5-0.3 0.7-0.9 0.7-1.8 0-1-0.3-1.7-0.9-2z" style="fill:#a61916"/>
	<path class="st35" d="m315 473v10.4h-3.6l-0.3-0.9c-1 0.9-2.4 1.3-4.2 1.3-3.1 0-5.5-1-7.2-2.9-1.5-1.8-2.3-4.1-2.3-7.1 0-2.7 0.9-5 2.8-7 1.8-1.9 4.2-2.9 7-2.9 3.6 0 6.1 1.5 7.5 4.5l-4.4 2.5c-0.8-1.2-1.8-1.9-3-1.9-2.4 0-3.7 1.6-3.7 4.8 0 3.3 1.3 4.9 3.7 4.9 1.7 0 2.6-0.4 2.8-1.2h-2.6v-4.5z" style="fill:#a61916"/>
	<path class="st35" d="m320 481c-1.8-1.9-2.7-4.3-2.7-7 0-2.8 0.9-5.1 2.7-7 1.9-2 4.3-3 7.1-3s5.1 1 7 3c1.8 1.9 2.7 4.2 2.7 7 0 2.7-0.9 5.1-2.7 7-1.9 1.9-4.2 2.9-7 2.9s-5.2-1-7.1-2.9zm9.5-3.2c0.8-0.8 1.2-2.1 1.2-3.8 0-3.2-1.2-4.8-3.6-4.8s-3.6 1.6-3.6 4.8 1.2 4.8 3.6 4.8c1 0 1.8-0.3 2.4-1z" style="fill:#a61916"/>
</g>
<linearGradient id="SVGID_00000073704340887375602190000004024485945995430816_" x1="264" x2="446" y1="148" y2="148" gradientTransform="translate(-40.2 -85.3)" gradientUnits="userSpaceOnUse">
	<stop style="stop-color:#259FDA" offset="0"/>
	<stop style="stop-color:#2498CE" offset=".271"/>
	<stop style="stop-color:#2184AD" offset=".763"/>
	<stop style="stop-color:#1F799B" offset="1"/>
</linearGradient>
<path d="m224 108c28.2-9.17 60-21.5 93.9-38 34.3-16.7 63.8-34.5 88.5-51.2-60.8 29.8-122 59.5-182 89.2z" style="fill:url(#SVGID_00000073704340887375602190000004024485945995430816_)"/>
</svg>
